<svg xmlns="http://www.w3.org/2000/svg" width="28" height="28" viewBox="0 0 28 28"><path d="M0,0H28V28H0Z" fill="none"/><path d="M12.713,12.217c-2.648-.688-3.5-1.4-3.5-2.508,0-1.272,1.178-2.158,3.15-2.158,2.077,0,2.847.992,2.917,2.45h2.578a4.651,4.651,0,0,0-3.745-4.445V3h-3.5V5.52C8.35,6.01,6.53,7.48,6.53,9.732c0,2.7,2.228,4.037,5.483,4.818,2.917.7,3.5,1.727,3.5,2.812,0,.8-.572,2.088-3.15,2.088-2.4,0-3.348-1.073-3.477-2.45H6.32c.14,2.555,2.053,3.99,4.293,4.468V24h3.5V21.492c2.275-.432,4.083-1.75,4.083-4.142C18.2,14.037,15.362,12.9,12.713,12.217Z" transform="translate(1.053 0.5)" fill="#949494"/></svg>