<svg xmlns="http://www.w3.org/2000/svg" width="28" height="28" viewBox="0 0 28 28"><path d="M0,0H28V28H0Z" fill="none"/><path d="M22.556,2.364H17.447a3.695,3.695,0,0,0-6.893,0H5.444A2.412,2.412,0,0,0,3,4.727V23.636A2.412,2.412,0,0,0,5.444,26H22.556A2.412,2.412,0,0,0,25,23.636V4.727A2.412,2.412,0,0,0,22.556,2.364ZM14,2.364a1.206,1.206,0,0,1,1.222,1.182,1.223,1.223,0,0,1-2.444,0A1.206,1.206,0,0,1,14,2.364Zm8.556,21.273H5.444V4.727H7.889V8.273H20.111V4.727h2.444Z" transform="translate(0)" fill="currentColor" class="i" /></svg>