<svg xmlns="http://www.w3.org/2000/svg" width="28" height="28" viewBox="0 0 28 28"><path d="M0,0H28V28H0Z" fill="none"/><path d="M22.556,5.444V22.556H5.444V5.444H22.556M23.9,3H4.1A1.1,1.1,0,0,0,3,4.1V23.9A1.182,1.182,0,0,0,4.1,25H23.9A1.3,1.3,0,0,0,25,23.9V4.1A1.182,1.182,0,0,0,23.9,3ZM12.778,7.889h7.333v2.444H12.778Zm0,4.889h7.333v2.444H12.778Zm0,4.889h7.333v2.444H12.778ZM7.889,7.889h2.444v2.444H7.889Zm0,4.889h2.444v2.444H7.889Zm0,4.889h2.444v2.444H7.889Z" transform="translate(0 0)" fill="currentColor" class="i"/></svg>